<?xml version="1.0" standalone="no"?>
<!DOCTYPE svg PUBLIC "-//W3C//DTD SVG 20010904//EN"
 "http://www.w3.org/TR/2001/REC-SVG-20010904/DTD/svg10.dtd">
<svg version="1.0" xmlns="http://www.w3.org/2000/svg"
 width="88.000000pt" height="88.000000pt" viewBox="0 0 88.000000 88.000000"
 preserveAspectRatio="xMidYMid meet">
<metadata>
Created by potrace 1.11, written by Peter Selinger 2001-2013
</metadata>
<g transform="translate(0.000000,88.000000) scale(0.100000,-0.100000)"
fill="#000000" stroke="none">
<path d="M0 440 l0 -420 440 0 440 0 0 420 0 420 -440 0 -440 0 0 -420z m544
385 c113 -30 213 -114 264 -223 24 -50 27 -70 27 -157 0 -92 -3 -106 -32 -167
-39 -82 -101 -146 -185 -190 -60 -31 -68 -33 -173 -33 -105 0 -113 2 -173 33
-84 44 -146 108 -185 190 -29 61 -32 75 -32 167 0 87 3 107 27 157 83 179 276
271 462 223z"/>
<path d="M292 713 c-7 -3 -19 -18 -27 -34 -18 -35 -32 -37 -38 -6 -2 12 -5 -3
-6 -35 0 -33 -6 -58 -13 -60 -21 -7 76 -76 132 -93 30 -9 66 -22 80 -28 l25
-11 -32 -4 c-39 -4 -43 -22 -12 -51 20 -18 21 -23 9 -53 -8 -18 -26 -49 -42
-68 -34 -43 -37 -95 -7 -134 24 -30 39 -34 39 -9 0 17 40 82 73 118 10 11 27
36 37 56 15 28 27 38 54 43 61 12 62 30 5 60 -28 14 -56 26 -62 26 -8 0 -11
20 -9 62 3 42 0 60 -6 53 -6 -5 -12 -19 -14 -29 -1 -10 -11 -24 -20 -30 -22
-13 -47 9 -65 57 -11 32 -11 32 -12 5 -1 -15 -6 -30 -11 -33 -18 -11 -59 23
-69 58 -9 31 -9 31 -10 5 -1 -34 -25 -37 -41 -7 -19 35 -4 65 40 83 42 17 54
28 20 19 -26 -7 -27 22 -2 36 17 11 7 13 -16 4z"/>
<path d="M606 656 c14 -22 14 -25 -1 -33 -14 -8 -13 -11 5 -28 20 -18 25 -41
14 -69 -9 -23 -24 -20 -24 4 0 11 -4 20 -10 20 -5 0 -10 -7 -10 -15 0 -8 -14
-30 -31 -49 -17 -20 -28 -40 -24 -46 8 -13 22 -13 38 0 7 6 38 29 70 51 l59
42 -7 56 c-4 31 -11 60 -15 65 -5 5 -7 0 -4 -11 9 -33 -14 -36 -30 -5 -8 16
-22 32 -31 35 -13 6 -13 4 1 -17z"/>
</g>
</svg>
